<svg xmlns="http://www.w3.org/2000/svg" viewBox="0 0 800 256" role="img" aria-label="Vyom AR">
  <defs>
    <radialGradient id="disk" cx="50%" cy="42%" r="70%">
      <stop offset="0%" stop-color="#131A38"/>
      <stop offset="100%" stop-color="#0A0E1F"/>
    </radialGradient>
    <radialGradient id="sunglow" cx="50%" cy="50%" r="50%">
      <stop offset="0%" stop-color="#FFD877" stop-opacity="0.9"/>
      <stop offset="100%" stop-color="#FFD877" stop-opacity="0"/>
    </radialGradient>
    <radialGradient id="moonglow" cx="50%" cy="50%" r="50%">
      <stop offset="0%" stop-color="#FFFFFF" stop-opacity="0.7"/>
      <stop offset="100%" stop-color="#FFFFFF" stop-opacity="0"/>
    </radialGradient>
  </defs>
  <circle cx="128" cy="128" r="122" fill="url(#disk)"/>
  <circle cx="128" cy="128" r="121" fill="none" stroke="#1B2350" stroke-width="1.5"/>
    <line x1="128" y1="24" x2="128" y2="11" stroke="#C77DFF" stroke-opacity="0.85" stroke-width="3" stroke-linecap="round"/>
    <line x1="151.98" y1="26.8" x2="154.98" y2="14.15" stroke="#C77DFF" stroke-opacity="0.35" stroke-width="3" stroke-linecap="round"/>
    <line x1="174.68" y1="35.06" x2="180.51" y2="23.44" stroke="#C77DFF" stroke-opacity="0.85" stroke-width="3" stroke-linecap="round"/>
    <line x1="194.85" y1="48.33" x2="203.21" y2="38.37" stroke="#C77DFF" stroke-opacity="0.35" stroke-width="3" stroke-linecap="round"/>
    <line x1="211.42" y1="65.9" x2="221.85" y2="58.13" stroke="#C77DFF" stroke-opacity="0.85" stroke-width="3" stroke-linecap="round"/>
    <line x1="223.49" y1="86.81" x2="235.43" y2="81.66" stroke="#C77DFF" stroke-opacity="0.35" stroke-width="3" stroke-linecap="round"/>
    <line x1="230.42" y1="109.94" x2="243.22" y2="107.68" stroke="#C77DFF" stroke-opacity="0.85" stroke-width="3" stroke-linecap="round"/>
    <line x1="231.82" y1="134.05" x2="244.8" y2="134.8" stroke="#C77DFF" stroke-opacity="0.35" stroke-width="3" stroke-linecap="round"/>
    <line x1="227.63" y1="157.83" x2="240.08" y2="161.56" stroke="#C77DFF" stroke-opacity="0.85" stroke-width="3" stroke-linecap="round"/>
    <line x1="218.07" y1="180" x2="229.32" y2="186.5" stroke="#C77DFF" stroke-opacity="0.35" stroke-width="3" stroke-linecap="round"/>
    <line x1="203.65" y1="199.37" x2="213.1" y2="208.29" stroke="#C77DFF" stroke-opacity="0.85" stroke-width="3" stroke-linecap="round"/>
    <line x1="185.15" y1="214.89" x2="192.29" y2="225.75" stroke="#C77DFF" stroke-opacity="0.35" stroke-width="3" stroke-linecap="round"/>
    <line x1="163.57" y1="225.73" x2="168.02" y2="237.94" stroke="#C77DFF" stroke-opacity="0.85" stroke-width="3" stroke-linecap="round"/>
    <line x1="140.07" y1="231.3" x2="141.58" y2="244.21" stroke="#C77DFF" stroke-opacity="0.35" stroke-width="3" stroke-linecap="round"/>
    <line x1="115.93" y1="231.3" x2="114.42" y2="244.21" stroke="#C77DFF" stroke-opacity="0.85" stroke-width="3" stroke-linecap="round"/>
    <line x1="92.43" y1="225.73" x2="87.98" y2="237.94" stroke="#C77DFF" stroke-opacity="0.35" stroke-width="3" stroke-linecap="round"/>
    <line x1="70.85" y1="214.89" x2="63.71" y2="225.75" stroke="#C77DFF" stroke-opacity="0.85" stroke-width="3" stroke-linecap="round"/>
    <line x1="52.35" y1="199.37" x2="42.9" y2="208.29" stroke="#C77DFF" stroke-opacity="0.35" stroke-width="3" stroke-linecap="round"/>
    <line x1="37.93" y1="180" x2="26.68" y2="186.5" stroke="#C77DFF" stroke-opacity="0.85" stroke-width="3" stroke-linecap="round"/>
    <line x1="28.37" y1="157.83" x2="15.92" y2="161.56" stroke="#C77DFF" stroke-opacity="0.35" stroke-width="3" stroke-linecap="round"/>
    <line x1="24.18" y1="134.05" x2="11.2" y2="134.8" stroke="#C77DFF" stroke-opacity="0.85" stroke-width="3" stroke-linecap="round"/>
    <line x1="25.58" y1="109.94" x2="12.78" y2="107.68" stroke="#C77DFF" stroke-opacity="0.35" stroke-width="3" stroke-linecap="round"/>
    <line x1="32.51" y1="86.81" x2="20.57" y2="81.66" stroke="#C77DFF" stroke-opacity="0.85" stroke-width="3" stroke-linecap="round"/>
    <line x1="44.58" y1="65.9" x2="34.15" y2="58.13" stroke="#C77DFF" stroke-opacity="0.35" stroke-width="3" stroke-linecap="round"/>
    <line x1="61.15" y1="48.33" x2="52.79" y2="38.37" stroke="#C77DFF" stroke-opacity="0.85" stroke-width="3" stroke-linecap="round"/>
    <line x1="81.32" y1="35.06" x2="75.49" y2="23.44" stroke="#C77DFF" stroke-opacity="0.35" stroke-width="3" stroke-linecap="round"/>
    <line x1="104.02" y1="26.8" x2="101.02" y2="14.15" stroke="#C77DFF" stroke-opacity="0.85" stroke-width="3" stroke-linecap="round"/>
  <circle cx="128" cy="128" r="84" fill="none" stroke="#9AA3C8"
    stroke-opacity="0.5" stroke-width="1.5" stroke-dasharray="2 7"/>
  <path d="M 63.65 181.99 A 84 84 0 0 1 181.99 63.65" fill="none" stroke="#FF7A3D" stroke-width="10" stroke-linecap="round"/>
  <circle cx="63.65" cy="181.99" r="34" fill="url(#sunglow)"/>
  <circle cx="63.65" cy="181.99" r="14" fill="#F4B740"/>
  <circle cx="181.99" cy="63.65" r="28" fill="url(#moonglow)"/>
  <circle cx="181.99" cy="63.65" r="11" fill="#D7DEF2"/>
  <text x="284" y="158" font-family="Iowan Old Style, Georgia, serif" font-weight="700"
    font-size="96" fill="#EEF1FF">Vyom <tspan fill="#FF7A3D">AR</tspan></text>
</svg>
